<svg width="2732" height="2732" viewBox="0 0 2732 2732" xmlns="http://www.w3.org/2000/svg">
  <!-- Splash: brand tile centered on the warm near-black canvas. -->
  <defs>
    <linearGradient id="bg" x1="0" y1="0" x2="1" y2="1">
      <stop offset="0%" stop-color="#12100c"/>
      <stop offset="100%" stop-color="#1c1913"/>
    </linearGradient>
    <linearGradient id="tile" x1="0" y1="0" x2="1" y2="1">
      <stop offset="0%" stop-color="#236b51"/>
      <stop offset="100%" stop-color="#123c2d"/>
    </linearGradient>
    <radialGradient id="glow" cx="0.5" cy="0.5" r="0.5">
      <stop offset="0%" stop-color="#2e8f6c" stop-opacity="0.35"/>
      <stop offset="100%" stop-color="#2e8f6c" stop-opacity="0"/>
    </radialGradient>
  </defs>
  <rect width="100%" height="100%" fill="url(#bg)"/>
  <circle cx="1366" cy="1366" r="900" fill="url(#glow)"/>
  <g transform="translate(1046 1046) scale(0.625)">
    <rect width="1024" height="1024" rx="232" fill="url(#tile)"/>
    <g transform="translate(-40 0)" fill="#f5f2ea">
      <rect x="336" y="290" width="68" height="444"/>
      <rect x="620" y="290" width="68" height="444"/>
      <rect x="396" y="486" width="232" height="52"/>
      <rect x="294" y="290" width="152" height="30" rx="6"/>
      <rect x="294" y="704" width="152" height="30" rx="6"/>
      <rect x="578" y="290" width="152" height="30" rx="6"/>
      <rect x="578" y="704" width="152" height="30" rx="6"/>
      <circle cx="782" cy="706" r="28" fill="#b9863a"/>
    </g>
  </g>
</svg>
